<?xml version="1.0" encoding="UTF-8" standalone="no"?>
<!-- Created with Inkscape (http://www.inkscape.org/) -->

<svg
   width="256mm"
   height="256mm"
   viewBox="0 0 256 256"
   version="1.1"
   id="svg5"
   xmlns="http://www.w3.org/2000/svg"
   xmlns:svg="http://www.w3.org/2000/svg">
  <defs
     id="defs2">
    <clipPath
       clipPathUnits="userSpaceOnUse"
       id="clipPath7028">
      <path
         style="fill:#22373c;fill-opacity:0.385737;stroke:none;stroke-width:0.264583px;stroke-linecap:butt;stroke-linejoin:miter;stroke-opacity:1"
         d="m 193.51087,113.81832 -31.98675,31.55007 9.33842,42.74493 -87.166632,84.58595 -101.433366,-72.4436 99.699961,-120.092339 21.166677,26.881659 31.75003,-46.778325 22.06655,57.645205 9.68345,-10.86688 z"
         id="path7030" />
    </clipPath>
    <clipPath
       clipPathUnits="userSpaceOnUse"
       id="clipPath7932">
      <circle
         style="fill:#19292d;fill-opacity:1;stroke:none;stroke-width:0.43299;stroke-linecap:round;stroke-linejoin:round;stroke-dashoffset:45.3543"
         id="circle7934"
         cx="128"
         cy="128"
         r="128"
         clip-path="url(#clipPath7028)"
         transform="translate(-6.8791796,2.1166767)" />
    </clipPath>
    <clipPath
       clipPathUnits="userSpaceOnUse"
       id="clipPath6560">
      <circle
         style="fill:#19292d;fill-opacity:1;stroke:none;stroke-width:0.43299;stroke-linecap:round;stroke-linejoin:round;stroke-dashoffset:45.3543"
         id="circle6562"
         cx="128"
         cy="128"
         r="128"
         clip-path="url(#clipPath7932)"
         transform="translate(-2.7480001e-5,19.038945)" />
    </clipPath>
  </defs>
  <circle
     style="fill:#131f22;fill-opacity:1;stroke:none;stroke-width:0.43299;stroke-linecap:round;stroke-linejoin:round;stroke-dashoffset:45.3543"
     id="path7076-4-1"
     cx="128"
     cy="128"
     r="128" />
  <circle
     style="fill:#19292d;fill-opacity:1;stroke:none;stroke-width:0.43299;stroke-linecap:round;stroke-linejoin:round;stroke-dashoffset:45.3543"
     id="path7076-4"
     cx="128"
     cy="128"
     r="128"
     clip-path="url(#clipPath6560)" />
  <g
     id="g1263"
     transform="matrix(0.26458333,0,0,0.26458333,60.062063,103.64002)" />
  <g
     id="g1265"
     transform="matrix(0.26458333,0,0,0.26458333,60.062063,103.64002)" />
  <g
     id="g1267"
     transform="matrix(0.26458333,0,0,0.26458333,60.062063,103.64002)" />
  <g
     id="g1269"
     transform="matrix(0.26458333,0,0,0.26458333,60.062063,103.64002)" />
  <g
     id="g1271"
     transform="matrix(0.26458333,0,0,0.26458333,60.062063,103.64002)" />
  <g
     id="g1273"
     transform="matrix(0.26458333,0,0,0.26458333,60.062063,103.64002)" />
  <g
     id="g1275"
     transform="matrix(0.26458333,0,0,0.26458333,60.062063,103.64002)" />
  <g
     id="g1277"
     transform="matrix(0.26458333,0,0,0.26458333,60.062063,103.64002)" />
  <g
     id="g1279"
     transform="matrix(0.26458333,0,0,0.26458333,60.062063,103.64002)" />
  <g
     id="g1281"
     transform="matrix(0.26458333,0,0,0.26458333,60.062063,103.64002)" />
  <g
     id="g1283"
     transform="matrix(0.26458333,0,0,0.26458333,60.062063,103.64002)" />
  <g
     id="g1285"
     transform="matrix(0.26458333,0,0,0.26458333,60.062063,103.64002)" />
  <g
     id="g1287"
     transform="matrix(0.26458333,0,0,0.26458333,60.062063,103.64002)" />
  <g
     id="g1289"
     transform="matrix(0.26458333,0,0,0.26458333,60.062063,103.64002)" />
  <g
     id="g1291"
     transform="matrix(0.26458333,0,0,0.26458333,60.062063,103.64002)" />
  <g
     id="g1390"
     transform="translate(2.3212712,-22.217743)"
     style="fill:#ef8a11;fill-opacity:1">
    <polygon
       style="fill:#ef8a11;fill-opacity:1"
       points="112,483.2 35.2,283.2 235.2,360 248,496 "
       id="polygon1223"
       transform="matrix(0.26458333,0,0,0.26458333,60.062063,103.64002)" />
    <polyline
       style="fill:#ef8a11;fill-opacity:1"
       points="248,496 112,483.2 35.2,283.2 "
       id="polyline1225"
       transform="matrix(0.26458333,0,0,0.26458333,60.062063,103.64002)" />
    <polygon
       style="fill:#ef8a11;fill-opacity:1"
       points="240,414.4 120,368 166.4,488 248,496 "
       id="polygon1227"
       transform="matrix(0.26458333,0,0,0.26458333,60.062063,103.64002)" />
    <polyline
       style="fill:#ef8a11;fill-opacity:1"
       points="248,496 240,414.4 120,368 "
       id="polyline1229"
       transform="matrix(0.26458333,0,0,0.26458333,60.062063,103.64002)" />
    <polygon
       style="fill:#ef8a11;fill-opacity:1"
       points="260.8,360 460.8,283.2 384,483.2 248,496 "
       id="polygon1231"
       transform="matrix(0.26458333,0,0,0.26458333,60.062063,103.64002)" />
    <polyline
       style="fill:#ef8a11;fill-opacity:1"
       points="248,496 260.8,360 460.8,283.2 "
       id="polyline1233"
       transform="matrix(0.26458333,0,0,0.26458333,60.062063,103.64002)" />
    <polygon
       style="fill:#ef8a11;fill-opacity:1"
       points="329.6,488 376,368 256,414.4 248,496 "
       id="polygon1235"
       transform="matrix(0.26458333,0,0,0.26458333,60.062063,103.64002)" />
    <polyline
       style="fill:#ef8a11;fill-opacity:1"
       points="248,496 329.6,488 376,368 "
       id="polyline1237"
       transform="matrix(0.26458333,0,0,0.26458333,60.062063,103.64002)" />
    <polygon
       style="fill:#ef8a11;fill-opacity:1"
       points="104.8,322.4 248,0 391.2,322.4 248,496 "
       id="polygon1239"
       transform="matrix(0.26458333,0,0,0.26458333,60.062063,103.64002)" />
    <polyline
       style="fill:#ef8a11;fill-opacity:1"
       points="248,496 104.8,322.4 248,0 "
       id="polyline1241"
       transform="matrix(0.26458333,0,0,0.26458333,60.062063,103.64002)" />
    <polygon
       style="fill:#ef8a11;fill-opacity:1"
       points="333.6,392 248,197.6 162.4,392 248,496 "
       id="polygon1243"
       transform="matrix(0.26458333,0,0,0.26458333,60.062063,103.64002)" />
    <polyline
       style="fill:#ef8a11;fill-opacity:1"
       points="248,496 333.6,392 248,197.6 "
       id="polyline1245"
       transform="matrix(0.26458333,0,0,0.26458333,60.062063,103.64002)" />
    <polygon
       style="fill:#ef8a11;fill-opacity:1"
       points="26.4,202.4 48,75.2 128,176.8 92.8,250.4 "
       id="polygon1247"
       transform="matrix(0.26458333,0,0,0.26458333,60.062063,103.64002)" />
    <polyline
       style="fill:#ef8a11;fill-opacity:1"
       points="92.8,250.4 26.4,202.4 48,75.2 "
       id="polyline1249"
       transform="matrix(0.26458333,0,0,0.26458333,60.062063,103.64002)" />
    <polygon
       style="fill:#ef8a11;fill-opacity:1"
       points="113.6,206.4 65.6,145.6 52.8,221.6 92.8,250.4 "
       id="polygon1251"
       transform="matrix(0.26458333,0,0,0.26458333,60.062063,103.64002)" />
    <polyline
       style="fill:#ef8a11;fill-opacity:1"
       points="92.8,250.4 113.6,206.4 65.6,145.6 "
       id="polyline1253"
       transform="matrix(0.26458333,0,0,0.26458333,60.062063,103.64002)" />
    <polygon
       style="fill:#ef8a11;fill-opacity:1"
       points="469.6,202.4 448,75.2 368,176.8 403.2,250.4 "
       id="polygon1255"
       transform="matrix(0.26458333,0,0,0.26458333,60.062063,103.64002)" />
    <polyline
       style="fill:#ef8a11;fill-opacity:1"
       points="403.2,250.4 469.6,202.4 448,75.2 "
       id="polyline1257"
       transform="matrix(0.26458333,0,0,0.26458333,60.062063,103.64002)" />
    <polygon
       style="fill:#ef8a11;fill-opacity:1"
       points="382.4,206.4 430.4,145.6 443.2,221.6 403.2,250.4 "
       id="polygon1259"
       transform="matrix(0.26458333,0,0,0.26458333,60.062063,103.64002)" />
    <polyline
       style="fill:#ef8a11;fill-opacity:1"
       points="403.2,250.4 382.4,206.4 430.4,145.6 "
       id="polyline1261"
       transform="matrix(0.26458333,0,0,0.26458333,60.062063,103.64002)" />
  </g>
  <g
     id="g1103"
     transform="matrix(1.9994815,0,0,1.9994815,460.92098,-61.229948)">
    <path
       style="fill:#ffb600;stroke-width:0.264583"
       d="m -128.77302,93.257791 c 0.0124,-0.281252 0.0437,-0.554302 0.0437,-0.837935 0,-20.861866 -16.91031,-37.774298 -37.7743,-37.774298 -20.8661,0 -37.77429,16.912432 -37.77429,37.774298 0,0.285485 0.0354,0.558535 0.0437,0.837935 z"
       id="path987" />
    <path
       style="fill:#ff9d00;stroke-width:0.264583"
       d="m -145.94818,93.257791 c 0.004,-0.281252 0.0251,-0.554302 0.0251,-0.837935 0,-20.861866 -9.21597,-37.774298 -20.58062,-37.774298 -11.36676,0 -20.58061,16.912432 -20.58061,37.774298 0,0.285485 0.0188,0.558535 0.0251,0.837935 z"
       id="path989" />
    <path
       style="fill:#ffe000;stroke-width:0.264583"
       d="m -126.03881,94.245481 c 0,1.148292 -0.9316,2.084123 -2.08412,2.084123 h -76.76145 c -1.15252,0 -2.08412,-0.935831 -2.08412,-2.084123 v 0 c 0,-1.152525 0.9316,-2.084123 2.08412,-2.084123 h 76.76171 c 1.15226,0 2.08386,0.933715 2.08386,2.084123 z"
       id="path991" />
    <path
       style="fill:#ffb600;stroke-width:0.264583"
       d="m -155.82269,74.444594 c 0,3.455458 -2.80115,6.252368 -6.25237,6.252368 h -8.85746 c -3.45122,0 -6.25237,-2.79691 -6.25237,-6.252368 V 55.687488 c 0,-3.451225 2.80115,-3.386667 6.25237,-3.386667 h 8.85746 c 3.45122,0 6.25237,-0.06456 6.25237,3.386667 z"
       id="path993" />
    <path
       style="fill:#ffe000;stroke-width:0.264583"
       d="m -162.0748,52.300821 h -8.85745 c -3.45123,0 -6.25237,-0.06456 -6.25237,3.386667 v 14.763749 c 0,3.451225 2.80114,6.252369 6.25237,6.252369 h 8.85745 c 3.45123,0 6.25237,-2.801144 6.25237,-6.252369 V 55.687488 c -2.6e-4,-3.453342 -2.80114,-3.386667 -6.25237,-3.386667 z"
       id="path995" />
  </g>
  <g
     id="g1003"
     transform="matrix(0.26458333,0,0,0.26458333,-229.85205,52.300821)">
</g>
  <g
     id="g1005"
     transform="matrix(0.26458333,0,0,0.26458333,-229.85205,52.300821)">
</g>
  <g
     id="g1007"
     transform="matrix(0.26458333,0,0,0.26458333,-229.85205,52.300821)">
</g>
  <g
     id="g1009"
     transform="matrix(0.26458333,0,0,0.26458333,-229.85205,52.300821)">
</g>
  <g
     id="g1011"
     transform="matrix(0.26458333,0,0,0.26458333,-229.85205,52.300821)">
</g>
  <g
     id="g1013"
     transform="matrix(0.26458333,0,0,0.26458333,-229.85205,52.300821)">
</g>
  <g
     id="g1015"
     transform="matrix(0.26458333,0,0,0.26458333,-229.85205,52.300821)">
</g>
  <g
     id="g1017"
     transform="matrix(0.26458333,0,0,0.26458333,-229.85205,52.300821)">
</g>
  <g
     id="g1019"
     transform="matrix(0.26458333,0,0,0.26458333,-229.85205,52.300821)">
</g>
  <g
     id="g1021"
     transform="matrix(0.26458333,0,0,0.26458333,-229.85205,52.300821)">
</g>
  <g
     id="g1023"
     transform="matrix(0.26458333,0,0,0.26458333,-229.85205,52.300821)">
</g>
  <g
     id="g1025"
     transform="matrix(0.26458333,0,0,0.26458333,-229.85205,52.300821)">
</g>
  <g
     id="g1027"
     transform="matrix(0.26458333,0,0,0.26458333,-229.85205,52.300821)">
</g>
  <g
     id="g1029"
     transform="matrix(0.26458333,0,0,0.26458333,-229.85205,52.300821)">
</g>
  <g
     id="g1031"
     transform="matrix(0.26458333,0,0,0.26458333,-229.85205,52.300821)">
</g>
</svg>
